<?xml version="1.0" encoding="UTF-8"?>
<svg id="Capa_1" data-name="Capa 1" xmlns="http://www.w3.org/2000/svg" viewBox="0 0 283.46 283.46">
  <defs>
    <style>
      .cls-1 {
        fill: #231d1e;
      }

      .cls-1, .cls-2 {
        stroke-width: 0px;
      }

      .cls-2 {
        fill: #9f9e45;
      }
    </style>
  </defs>
  <path class="cls-1" d="m141.71,82.69c52.14-3.54,100,47.46,98.95,97.42-1.12,53.73-44.61,99-97.91,99.56-52.72.56-100.41-46.37-99.97-99.22.48-57.34,50.22-100.07,98.92-97.76Zm-.45,157.21c25.66,3.49,59.26-22.37,59.03-57.99-.21-32.45-25.55-57.82-56.88-59.31-28.58-1.36-60.2,24.75-59.54,59.03.63,32.78,25.16,58.22,57.4,58.28Z"/>
  <path class="cls-2" d="m152.63,25.82c-.54,7.72-.88,15.47-1.72,23.16-.42,3.77,2.21,9.74-4.2,10.36-6.32.61-14.43,2.69-18.15-4.36-5.22-9.88-12.11-18.93-15.49-29.79-2.96-9.53.68-15.87,9.51-19.28,17.02-6.58,30.72,2.64,30.05,19.9Z"/>
  <path class="cls-2" d="m141.8,160.33c10.82-.13,22.98,11,22.86,20.91-.13,10.45-10.63,21.1-21.08,21.39-13.68.37-23.16-8.14-23.09-20.74.07-12.5,8.89-21.42,21.31-21.56Z"/>
</svg>